#!OML:ASF E:/inclinewalkrobotboard/Project1/Captureday1/Session1/subject1.ASF
:FULLY-SPECIFIED
:DEGREES
1
root 0 0 0 30.821865459357 -43.407683553677415 -4.454758127423179
lowerback -14.23233438264872 2.8538521468866334 -6.9285178342659295
upperback -9.442930112306497 4.069545496399404 -1.599824376534614
thorax -2.600080350501001 2.4866844402550883 2.5553140619818078
lowerneck -12.249172712743858 4.181186027607646 4.963909275772642
upperneck 34.05564327160418 3.1464060836889094 4.234580403595405
head 13.698841435591394 2.3547139793351075 1.147641605023924
rclavicle -2.50112647247849E-15 1.0184311072513166E-15
rhumerus -34.311978306935636 30.698261592202762 -104.49851293363727
rradius 31.76730141929848
rwrist -30.00770582449556
rhand 21.100808878942495 2.560531559970679
rfingers 7.125020000000019
rthumb 45.40044018414852 -19.4665587756501
lclavicle 4.0956364537153E-16 -1.3435804382953765E-15
lhumerus -81.73633055329802 -42.47055642613969 127.09472511342746
lradius 53.14985895398374
lwrist 35.25994544208064
lhand 23.944952254751843 21.186447168877518
lfingers 7.125020000000015
lthumb 48.093864062967704 42.11396898948053
rfemur -28.768554091528102 13.744865894703224 27.483815740439525
rtibia 38.54170000991456
rfoot 0.8133659812488538 -38.527186643525766
rtoes 23.923243124342743
lfemur -45.747329317935495 -0.9359339564897251 -32.331266284224874
ltibia 33.71711136557575
lfoot -50.83318827600229 27.762127804469884
ltoes 25.059288599751483
2
root 0 0 0 30.961026313899946 -43.88997474708244 -4.644992092545437
lowerback -14.417825841918614 2.935087091083508 -6.8039527577424055
upperback -9.503575536016598 4.187514037597051 -1.5577143563440843
thorax -2.5736171766942757 2.5438204780423623 2.5311360272814625
lowerneck -12.213922508841385 4.150839279153272 4.9741438791916766
upperneck 34.169449117709384 3.0848493007319338 4.273339800960255
head 13.731657330098326 2.3319354317273335 1.1522174717107285
rclavicle -2.6479373246825603E-15 -1.575227396722905E-15
rhumerus -36.562046451922576 29.625449705376866 -101.83218074351805
rradius 31.31357164549209
rwrist -28.199588542548092
rhand 21.455717867640832 2.484055920864529
rfingers 7.125020000000017
rthumb 45.73772883901215 -19.51067516639927
lclavicle 1.764482229343585E-16 -3.8007174617249205E-15
lhumerus -83.86171956521044 -42.88368868248966 126.62814036888837
lradius 53.56551817820011
lwrist 34.54059724889853
lhand 23.955315344482873 21.083697712169254
lfingers 7.125020000000014
lthumb 48.102289822259365 41.99618590416894
rfemur -28.159747817351658 16.281408310051788 28.26875140057176
rtibia 36.69405691439008
rfoot 1.6992485909333013 -38.827136596631746
rtoes 24.88839669628288
lfemur -45.944822104868265 -1.125607786297893 -31.880206877678624
ltibia 32.67681709888901
lfoot -52.19947906848802 28.058642465481153
ltoes 26.473829719603753
3
root 0 0 0 31.131480532486233 -44.20302959649782 -4.841953581286668
lowerback -14.545762854460484 2.989903519321702 -6.669090150455359
upperback -9.555616482926887 4.262967581409336 -1.5004142390349786
thorax -2.564817685646738 2.575279851168278 2.51963887398783
lowerneck -12.192307132340876 4.106438609983667 4.96867783263516
upperneck 34.25399697169421 3.0140298113648796 4.278256639708219
head 13.755590860270061 2.301108825452011 1.147718943281891
rclavicle -2.76532372654418E-15 -1.8782365012071277E-15
rhumerus -37.48166266442851 28.703510326271747 -100.09225111501256
rradius 31.109382690935732
rwrist -27.311286851728703
rhand 21.50298535738842 2.476500851537561
rfingers 7.125020000000017
rthumb 45.786514446007565 -19.536068598487976
lclavicle -3.74543439985198E-17 -4.114433249229342E-15
lhumerus -84.20631908133203 -42.82045469541433 126.04738596749162
lradius 53.59505722299361
lwrist 34.146975224461215
lhand 23.937653978873897 21.023420545041485
lfingers 7.125020000000014
lthumb 48.0861766038789 41.943852382504474
rfemur -27.422245266508654 16.802000197999845 28.171870367568445
rtibia 35.967531924739355
rfoot 1.9736675954041445 -38.99961435218273
rtoes 25.09403454773062
lfemur -46.058436591792514 -1.1381571964666115 -31.691183541056112
ltibia 32.51046746764038
lfoot -52.441921105602205 28.129942544976302
ltoes 26.78258428377884
4
root 0 0 0 31.286525067345647 -44.48448390383659 -5.039299875860612
lowerback -14.655793949848256 3.042245856005704 -6.539981063435707
upperback -9.59718610483586 4.333494063372125 -1.453132731130065
thorax -2.5530538652544 2.6037817712423053 2.499733397832654
lowerneck -12.165701945737522 4.063552825904206 4.9625793233045865
upperneck 34.33017643915041 2.944398127296105 4.287313066814423
head 13.776192077054077 2.2711437690135545 1.1451649840933544
rclavicle -2.7101345898203492E-15 -2.2079290680567324E-15
rhumerus -38.12773685223094 27.850823607223163 -98.56013623078587
rradius 30.943583743320847
rwrist -26.64226254012788
rhand 21.523488749884425 2.4634719268006746
rfingers 7.125020000000017
rthumb 45.80915637393212 -19.568968952336323
lclavicle -1.2585147062758317E-16 -4.478595101589804E-15
lhumerus -84.44115234595343 -42.69174567857222 125.52821098666315
lradius 53.598542074839244
lwrist 33.830076079085956
lhand 23.91296289681749 20.96818734302469
lfingers 7.125020000000015
lthumb 48.0634836538962 41.89893028749268
rfemur -27.040523696537704 17.098899355064134 28.102717842935334
rtibia 35.57738649651656
rfoot 2.11743993528815 -39.12752239527404
rtoes 25.25898014095625
lfemur -46.180053446025774 -1.1398365651019606 -31.524614994299792
ltibia 32.44496461442138
lfoot -52.59732307284578 28.178637006958404
ltoes 26.98314625443757
5
root 0 0 0 31.445928380477607 -44.746219432713595 -5.233556639607905
lowerback -14.758137699521459 3.0927858597933837 -6.416179622674621
upperback -9.637396612599026 4.400656635914471 -1.4090636062568973
thorax -2.543571910815417 2.6306224806991945 2.4790580157295175
lowerneck -12.135976141774883 4.020070047193558 4.955535067037328
upperneck 34.404045686687795 2.874593074666268 4.294396235356229
head 13.795251648390138 2.2407569855157607 1.1422681612007899
rclavicle -2.6913244820993424E-15 -2.4635325528166105E-15
rhumerus -38.643459858373504 27.045476764567276 -97.16100558303603
rradius 30.816090474475693
rwrist -26.07627733587421
rhand 21.535388935275737 2.4556741824364012
rfingers 7.125020000000016
rthumb 45.82351086164735 -19.595974186547267
lclavicle -2.2720236405615977E-16 -4.7504150027043206E-15
lhumerus -84.6172224500738 -42.54123170319006 125.10759849220851
lradius 53.58636509746448
lwrist 33.5576596307938
lhand 23.893067791401414 20.922376611648698
lfingers 7.125020000000015
lthumb 48.04515321365115 41.86298366340378
rfemur -27.03926218297272 17.31395795969935 28.14300710051026
rtibia 35.45459584963611
rfoot 2.138585820611972 -39.192602673225245
rtoes 25.443159276904222
lfemur -46.312501263919174 -1.1404628920719624 -31.38080066394588
ltibia 32.395490913891
lfoot -52.75104275692489 28.218091762111364
ltoes 27.15772259714946
